<svg viewBox="0 0 800 500" xmlns="http://www.w3.org/2000/svg" xmlns:xlink="http://www.w3.org/1999/xlink">
  <defs>
    <radialGradient id="hg" cx="40%" cy="40%" r="55%">
      <stop offset="0%" stop-color="#ea580c" stop-opacity="0.14"/>
      <stop offset="100%" stop-color="#fff8f4" stop-opacity="0"/>
    </radialGradient>
    <radialGradient id="hg2" cx="85%" cy="75%" r="40%">
      <stop offset="0%" stop-color="#ea580c" stop-opacity="0.06"/>
      <stop offset="100%" stop-color="#fff8f4" stop-opacity="0"/>
    </radialGradient>
    <clipPath id="clip"><rect width="800" height="500"/></clipPath>
  </defs>
  <g clip-path="url(#clip)">

  <!-- Background -->
  <rect width="800" height="500" fill="#fff8f4"/>
  <rect width="800" height="340" fill="url(#hg)"/>
  <rect width="800" height="500" fill="url(#hg2)"/>

  <!-- Nav bar -->
  <rect width="800" height="50" fill="rgba(0,0,0,0.06)"/>
  <!-- Logo text -->
  <text x="28" y="32" font-family="system-ui,-apple-system,sans-serif" font-size="16" font-weight="700" fill="#ea580c" letter-spacing="-0.3">PetCare 🐾</text>
  <!-- Nav links -->
  <text x="480" y="30" font-family="system-ui,-apple-system,sans-serif" font-size="11" fill="rgba(0,0,0,0.5)">Serviços</text>
  <text x="550" y="30" font-family="system-ui,-apple-system,sans-serif" font-size="11" fill="rgba(0,0,0,0.5)">Veterinária</text>
  <text x="620" y="30" font-family="system-ui,-apple-system,sans-serif" font-size="11" fill="rgba(0,0,0,0.5)">Produtos</text>
  <!-- CTA btn -->
  <rect x="685" y="14" width="90" height="24" rx="6" fill="#ea580c"/>
  <text x="730" y="30" font-family="system-ui,-apple-system,sans-serif" font-size="10.5" font-weight="700" fill="#fff8f4" text-anchor="middle">Agendar</text>

  <!-- Hero tag pill -->
  <rect x="28" y="70" width="136" height="20" rx="10" fill="rgba(234,88,12,0.18)" stroke="#ea580c" stroke-width="0.8" stroke-opacity="0.5"/>
  <text x="40" y="84" font-family="system-ui,-apple-system,sans-serif" font-size="10" font-weight="600" fill="#ea580c" letter-spacing="0.8">🐾 PET SHOP & VET</text>

  <!-- H1 line 1 -->
  <text x="28" y="126" font-family="system-ui,-apple-system,sans-serif" font-size="26" font-weight="700" fill="rgba(0,0,0,0.85)" letter-spacing="-0.8">Porque eles merecem</text>
  <!-- H1 line 2 accent -->
  <text x="28" y="158" font-family="system-ui,-apple-system,sans-serif" font-size="26" font-weight="700" fill="#ea580c" letter-spacing="-0.8">o melhor cuidado</text>

  <!-- Subtitle lines -->
  <rect x="28" y="176" width="340" height="8" rx="3" fill="rgba(0,0,0,0.28)"/>
  <rect x="28" y="190" width="280" height="8" rx="3" fill="rgba(0,0,0,0.28)" opacity="0.6"/>

  <!-- Buttons -->
  <rect x="28" y="214" width="140" height="34" rx="8" fill="#ea580c"/>
  <text x="98" y="235" font-family="system-ui,-apple-system,sans-serif" font-size="12" font-weight="700" fill="#fff8f4" text-anchor="middle">Ver mais →</text>
  <rect x="180" y="214" width="120" height="34" rx="8" fill="transparent" stroke="#ea580c" stroke-width="1.5" stroke-opacity="0.5"/>
  <text x="240" y="235" font-family="system-ui,-apple-system,sans-serif" font-size="11.5" font-weight="600" fill="rgba(0,0,0,0.5)" text-anchor="middle">Saiba mais</text>

  <!-- Floating deco right side -->
  <rect x="500" y="58" width="272" height="210" rx="16" fill="rgba(0,0,0,0.04)" stroke="rgba(234,88,12,0.22)" stroke-width="1"/>
  <rect x="516" y="72" width="240" height="16" rx="4" fill="rgba(234,88,12,0.18)"/>
  <text x="528" y="84" font-family="system-ui,-apple-system,sans-serif" font-size="9.5" font-weight="600" fill="#ea580c" letter-spacing="1">PAINEL</text>
  <rect x="516" y="98" width="240" height="44" rx="8" fill="rgba(234,88,12,0.18)"/>
  <rect x="524" y="105" width="24" height="24" rx="6" fill="#ea580c" opacity="0.6"/>
  <rect x="556" y="108" width="100" height="7" rx="2" fill="rgba(0,0,0,0.5)" opacity="0.6"/>
  <rect x="556" y="120" width="72" height="6" rx="2" fill="rgba(0,0,0,0.28)"/>
  <rect x="516" y="152" width="240" height="44" rx="8" fill="rgba(234,88,12,0.18)" opacity="0.5"/>
  <rect x="524" y="159" width="24" height="24" rx="6" fill="#ea580c" opacity="0.4"/>
  <rect x="556" y="162" width="90" height="7" rx="2" fill="rgba(0,0,0,0.5)" opacity="0.5"/>
  <rect x="556" y="174" width="64" height="6" rx="2" fill="rgba(0,0,0,0.28)"/>
  <!-- Big stat in deco -->
  <text x="636" y="115" font-family="system-ui,-apple-system,sans-serif" font-size="22" font-weight="700" fill="#ea580c">3k+</text>
  <text x="636" y="130" font-family="system-ui,-apple-system,sans-serif" font-size="8.5" fill="rgba(0,0,0,0.5)">Pets</text>
  <text x="636" y="170" font-family="system-ui,-apple-system,sans-serif" font-size="22" font-weight="700" fill="#ea580c">4.9★</text>
  <text x="636" y="185" font-family="system-ui,-apple-system,sans-serif" font-size="8.5" fill="rgba(0,0,0,0.5)">Avaliação</text>

  <!-- Perks row -->
  <circle cx="28" cy="267" r="4" fill="#ea580c" opacity="0.7"/>
  <text x="40" y="271" font-family="system-ui,-apple-system,sans-serif" font-size="10.5" fill="rgba(0,0,0,0.5)">Veterinários 24h</text>
  <circle cx="210" cy="267" r="4" fill="#ea580c" opacity="0.7"/>
  <text x="222" y="271" font-family="system-ui,-apple-system,sans-serif" font-size="10.5" fill="rgba(0,0,0,0.5)">Busca & entrega</text>

  <!-- Stats strip -->
  <rect y="296" width="800" height="48" fill="rgba(234,88,12,0.18)"/>
  <text x="100" y="316" font-family="system-ui,-apple-system,sans-serif" font-size="16" font-weight="700" fill="#ea580c" text-anchor="middle">3k+</text>
  <text x="100" y="332" font-family="system-ui,-apple-system,sans-serif" font-size="9" fill="rgba(0,0,0,0.5)" text-anchor="middle">Pets</text>
  <text x="300" y="316" font-family="system-ui,-apple-system,sans-serif" font-size="16" font-weight="700" fill="#ea580c" text-anchor="middle">4.9★</text>
  <text x="300" y="332" font-family="system-ui,-apple-system,sans-serif" font-size="9" fill="rgba(0,0,0,0.5)" text-anchor="middle">Avaliação</text>
  <text x="500" y="316" font-family="system-ui,-apple-system,sans-serif" font-size="16" font-weight="700" fill="#ea580c" text-anchor="middle">5 anos</text>
  <text x="500" y="332" font-family="system-ui,-apple-system,sans-serif" font-size="9" fill="rgba(0,0,0,0.5)" text-anchor="middle">Mercado</text>
  <!-- 4th stat -->
  <rect x="640" y="309" width="120" height="28" rx="6" fill="#ea580c" opacity="0.9"/>
  <text x="700" y="327" font-family="system-ui,-apple-system,sans-serif" font-size="10" font-weight="700" fill="#fff8f4" text-anchor="middle">Ver todos →</text>

  <!-- Cards section -->
  <rect y="352" width="800" height="148" fill="#f9f9f9"/>
  <!-- Card 1 -->
  <rect x="18" y="366" width="244" height="118" rx="12" fill="rgba(0,0,0,0.04)" stroke="rgba(234,88,12,0.22)" stroke-width="0.8"/>
  <rect x="30" y="378" width="36" height="36" rx="10" fill="rgba(234,88,12,0.18)"/>
  <text x="48" y="401" font-family="system-ui,-apple-system,sans-serif" font-size="18" text-anchor="middle">🐕</text>
  <text x="76" y="390" font-family="system-ui,-apple-system,sans-serif" font-size="11.5" font-weight="700" fill="rgba(0,0,0,0.85)">Banho & Tosa</text>
  <rect x="76" y="396" width="140" height="6" rx="2" fill="rgba(0,0,0,0.28)"/>
  <rect x="76" y="407" width="100" height="6" rx="2" fill="rgba(0,0,0,0.28)" opacity="0.6"/>
  <rect x="30" y="430" width="80" height="16" rx="8" fill="rgba(234,88,12,0.18)"/>
  <text x="70" y="441" font-family="system-ui,-apple-system,sans-serif" font-size="9" fill="#ea580c" font-weight="600" text-anchor="middle">Cães · Gatos</text>
  <text x="200" y="469" font-family="system-ui,-apple-system,sans-serif" font-size="10" fill="#ea580c">Saiba mais →</text>
  <!-- Card 2 -->
  <rect x="278" y="366" width="244" height="118" rx="12" fill="rgba(0,0,0,0.04)" stroke="rgba(234,88,12,0.22)" stroke-width="0.8"/>
  <rect x="290" y="378" width="36" height="36" rx="10" fill="rgba(234,88,12,0.18)"/>
  <text x="308" y="401" font-family="system-ui,-apple-system,sans-serif" font-size="18" text-anchor="middle">💊</text>
  <text x="336" y="390" font-family="system-ui,-apple-system,sans-serif" font-size="11.5" font-weight="700" fill="rgba(0,0,0,0.85)">Veterinária</text>
  <rect x="336" y="396" width="140" height="6" rx="2" fill="rgba(0,0,0,0.28)"/>
  <rect x="336" y="407" width="100" height="6" rx="2" fill="rgba(0,0,0,0.28)" opacity="0.6"/>
  <rect x="290" y="430" width="80" height="16" rx="8" fill="rgba(234,88,12,0.18)"/>
  <text x="330" y="441" font-family="system-ui,-apple-system,sans-serif" font-size="9" fill="#ea580c" font-weight="600" text-anchor="middle">Consulta · Vacina</text>
  <text x="460" y="469" font-family="system-ui,-apple-system,sans-serif" font-size="10" fill="#ea580c">Saiba mais →</text>
  <!-- Card 3 -->
  <rect x="538" y="366" width="244" height="118" rx="12" fill="rgba(0,0,0,0.04)" stroke="rgba(234,88,12,0.22)" stroke-width="0.8"/>
  <rect x="550" y="378" width="36" height="36" rx="10" fill="rgba(234,88,12,0.18)"/>
  <text x="568" y="401" font-family="system-ui,-apple-system,sans-serif" font-size="18" text-anchor="middle">🛒</text>
  <text x="596" y="390" font-family="system-ui,-apple-system,sans-serif" font-size="11.5" font-weight="700" fill="rgba(0,0,0,0.85)">Loja</text>
  <rect x="596" y="396" width="140" height="6" rx="2" fill="rgba(0,0,0,0.28)"/>
  <rect x="596" y="407" width="100" height="6" rx="2" fill="rgba(0,0,0,0.28)" opacity="0.6"/>
  <rect x="550" y="430" width="80" height="16" rx="8" fill="rgba(234,88,12,0.18)"/>
  <text x="590" y="441" font-family="system-ui,-apple-system,sans-serif" font-size="9" fill="#ea580c" font-weight="600" text-anchor="middle">Ração · Petisco</text>
  <text x="718" y="469" font-family="system-ui,-apple-system,sans-serif" font-size="10" fill="#ea580c">Saiba mais →</text>

  </g>
</svg>